<svg xmlns="http://www.w3.org/2000/svg" fill="#e5e7eb" viewBox="180 0 476.84 106.43" stroke="#e5e7eb" width="12em" stroke-width="2px">
    <g id="Layer_2" data-name="Layer 2">
        <g id="Layer_1-2" data-name="Layer 1">
            <path d="M187.25,33.93c11.65.9,22.24-4.77,31.88-10.61,1.73-1.05.15-3.77-1.59-2.72-9.19,5.57-19.18,11-30.29,10.18-2-.16-2,3,0,3.15Z"/>
            <path d="M194.84,89.79A43.93,43.93,0,0,0,218,86.38a1.58,1.58,0,0,0,.57-2.15,1.62,1.62,0,0,0-2.16-.57,41,41,0,0,1-21.6,3c-.85-.11-1.57.81-1.58,1.58a1.61,1.61,0,0,0,1.58,1.57Z"/>
            <path d="M205,88.61c-.24-16.34,3.25-32.4,4.2-48.67a116.35,116.35,0,0,0,0-13.85c-.13-2-3.28-2-3.15,0,1,16.34-2.33,32.45-3.7,48.66-.39,4.61-.61,9.24-.54,13.86,0,2,3.18,2,3.15,0Z"/>
            <path d="M237.41,40a59.9,59.9,0,0,1-2.51,15.27c-.58,1.94,2.45,2.77,3,.83A63.66,63.66,0,0,0,240.56,40c.07-2-3.08-2-3.15,0Z"/>
            <path d="M251.53,51.57a47.64,47.64,0,0,1,1.81,19.54c-.64,6.75-1.63,13.48-2.48,20.21-.11.85.8,1.57,1.58,1.58A1.61,1.61,0,0,0,254,91.32c.87-6.89,1.9-13.78,2.52-20.7a49.4,49.4,0,0,0-2-19.89c-.63-1.92-3.67-1.09-3,.84Z"/>
            <path d="M254.41,91.86l5.83-24,1.46-6c.41-1.69.57-3.9,1.5-5.39.07-.12.28-.53.44-.55-.13,0,.05.23.12.33a12,12,0,0,1,1,2.6c.63,1.83,1.17,3.69,1.63,5.56a63,63,0,0,1,1.76,13.11c.06,2,3.21,2,3.15,0A67.38,67.38,0,0,0,269.53,64a65.28,65.28,0,0,0-1.89-6.45c-.6-1.72-1.19-4.07-3.17-4.67-4.24-1.29-5.11,5.26-5.75,7.87l-3.44,14.17L251.37,91c-.48,2,2.56,2.81,3,.84Z"/>
            <path d="M272.09,77.48a33.56,33.56,0,0,1,3.73-11.92c.89-1.82,1.78-3.69,2.82-5.43a5.61,5.61,0,0,1,1.78-2,2.66,2.66,0,0,1,1.12-.41c.58,0,.38,0,.61.36a4.48,4.48,0,0,1,.24,1.44c.1.64.2,1.28.28,1.92.16,1.15.29,2.3.4,3.45.21,2.25.35,4.52.41,6.79a96.28,96.28,0,0,1-.64,13.58c-.23,2,2.92,2,3.15,0a97.68,97.68,0,0,0-.42-25.62c-.25-1.71-.26-3.81-2-4.68a5.1,5.1,0,0,0-4.89.56,10.39,10.39,0,0,0-3.25,3.94c-.94,1.76-1.86,3.55-2.71,5.35a36.19,36.19,0,0,0-3.77,12.7c-.16,2,3,2,3.15,0Z"/>
            <path d="M329.29,26.75a15.75,15.75,0,0,0,1.2,6.6,53.47,53.47,0,0,1,1.94,6.55,83.59,83.59,0,0,1,1.5,13.85c.22,4.59.35,9.19.91,13.75.6,4.84,1.56,9.55,1.61,14.45a43.3,43.3,0,0,0,.47,7.28c.38,2.09,1,4.64,3.23,5.41,1.92.66,2.74-2.38.83-3-.44-.15-.7-1.77-.79-2.14a18.43,18.43,0,0,1-.47-3c-.15-2.08-.09-4.17-.15-6.25-.13-4.58-1.18-9-1.69-13.57-.95-8.56-.53-17.24-2.06-25.75A43.79,43.79,0,0,0,334.06,34c-.82-2.37-1.84-4.7-1.62-7.27.17-2-3-2-3.15,0Z"/>
            <path d="M341.55,93.63c3.76-7.24,5.76-15.15,7.43-23.1.83-4,1.59-8,2.5-11.93.45-2,.93-3.94,1.48-5.89q.41-1.45.87-2.91c.23-.71.41-2.07,1.1-2.51,1.7-1.08.12-3.81-1.59-2.72s-2.18,3.18-2.74,5-1.13,3.88-1.61,5.85c-1,4.16-1.84,8.36-2.7,12.55-1.69,8.23-3.56,16.54-7.46,24.05-.94,1.8,1.78,3.39,2.72,1.59Z"/>
            <path d="M352.38,46.12c2.1,7.75,2.16,15.79,2.69,23.75a91.77,91.77,0,0,0,1.39,11.7c.63,3.24,1.37,6.94,4.39,8.82,1.73,1.07,3.31-1.65,1.59-2.72a5.67,5.67,0,0,1-2.15-3.51,45,45,0,0,1-1.12-5.25,108.07,108.07,0,0,1-1.09-11.36c-.43-7.47-.7-15-2.66-22.27a1.58,1.58,0,0,0-3,.84Z"/>
            <path d="M363.71,90.39c7.79-16,6.87-34.1,9.07-51.33a88.17,88.17,0,0,1,3-14.63c.59-1.94-2.45-2.77-3-.83-5.09,16.71-3.48,34.46-7.15,51.43A60.16,60.16,0,0,1,361,88.8c-.88,1.82,1.84,3.42,2.72,1.59Z"/>
            <path d="M399.06,81.88c-3.48-3.34-2.34-9.2-2.11-13.49q.51-9.21.41-18.45a1.59,1.59,0,0,0-2.94-.79c-2.52,4.08-5.21,8.11-7.42,12.38a41.09,41.09,0,0,0-4.23,13.18c-.38,2.79-1.74,10,2.84,10.27,2.18.12,3.53-1.82,4.67-3.36l4.5-6.1c1.21-1.63-1.53-3.2-2.72-1.59l-3.51,4.77c-.59.79-1.14,1.66-1.8,2.39-.36.4-.75,1-1.09.47s-.14-1.53-.13-2.09c0-.91.07-1.83.16-2.74a34.8,34.8,0,0,1,1-5.65c1.91-7.48,6.46-13.86,10.46-20.34l-2.93-.8q.1,10-.49,19.93c-.3,4.88-.75,10.53,3.11,14.23,1.46,1.41,3.69-.82,2.23-2.22Z"/>
            <path d="M416.83,62.87c-3.24,1.3-4.7,4.29-5.41,7.54a87.09,87.09,0,0,0-1.81,11.22c-.25,3-.11,6.63,3.26,7.71,2.81.9,6.47.27,9.22-.56a21.85,21.85,0,0,0,9.13-5.41c1.45-1.42-.78-3.65-2.22-2.22a18.76,18.76,0,0,1-7.93,4.65,18.15,18.15,0,0,1-4.74.73c-1.2,0-2.95.21-3.45-1.13s-.19-3.23,0-4.68c.2-1.93.53-3.83.88-5.73.53-2.82.77-7.81,3.95-9.08,1.86-.74,1.05-3.79-.84-3Z"/>
            <path d="M427.14,80.43c.15-9.63.3-19.25.3-28.88,0-4.63.05-9.29-.18-13.92a32.76,32.76,0,0,0-2.6-12.28c-.85-1.84-3.56-.24-2.72,1.59,1.72,3.76,2.1,7.93,2.23,12,.14,4.52.12,9.06.12,13.59,0,9.29-.16,18.59-.3,27.88,0,2,3.11,2,3.15,0Z"/>
            <path d="M443.7,73.51c5.44-2.23,8.2-7.79,10.34-12.93,1.19-2.84,1.95-6.58-.54-9s-5.37-.59-7.09,1.72c-1.86,2.5-2.76,5.66-3.6,8.62a68.46,68.46,0,0,0-2.14,10.12,16,16,0,0,0,.71,8.16c1.05,2.54,3.39,4.94,6.33,4.83,3.16-.12,6.39-2.21,8.62-4.32a17.82,17.82,0,0,0,4.88-8.12,1.58,1.58,0,0,0-3-.83,14.67,14.67,0,0,1-8,9.35,5.37,5.37,0,0,1-3.11.73,4,4,0,0,1-2.38-2,10.18,10.18,0,0,1-1.08-5.85,55.15,55.15,0,0,1,3.27-14.72,18.63,18.63,0,0,1,1.35-3.11c.45-.79,1.33-2.36,2.3-2.61s1.33,1,1.44,1.68a7.87,7.87,0,0,1-.82,4c-1.65,4-4,9.38-8.31,11.16a1.63,1.63,0,0,0-1.1,1.94,1.58,1.58,0,0,0,1.93,1.1Z"/>
            <path d="M475.66,80a.08.08,0,0,1,0,0l.15.37,0-.11.06.42v-.12l-.06.42a.74.74,0,0,1,0-.14l-.16.38a1.19,1.19,0,0,1,.09-.15l-.25.32a1.36,1.36,0,0,1,.12-.12l-.32.24.15-.08-.38.16.13,0-.42.06h.12l-.42-.06.1,0-.37-.16.1.06-.32-.24.07.07L473.8,81a.39.39,0,0,1,.06.11l-.16-.38a.42.42,0,0,1,0,.16l-.05-.42a.54.54,0,0,1,0,.18l.06-.42a1.09,1.09,0,0,1-.05.17l.16-.38a.75.75,0,0,1-.07.12l.25-.32-.09.09.32-.25-.1.06.38-.16-.05,0a1.12,1.12,0,0,0-.54.28,1.21,1.21,0,0,0-.4.44,1.11,1.11,0,0,0-.19.58,1.13,1.13,0,0,0,0,.63l.16.38a1.58,1.58,0,0,0,.56.56l.38.16a1.5,1.5,0,0,0,.84,0,2,2,0,0,0,.89-.52,2.15,2.15,0,0,0,.52-.9.45.45,0,0,0,0-.11,2.44,2.44,0,0,0,.06-.55,2.33,2.33,0,0,0-.07-.53,2,2,0,0,0-.19-.5l-.06-.09a2.12,2.12,0,0,0-.65-.65,1.94,1.94,0,0,0-.47-.21,1.82,1.82,0,0,0-.56-.09,2.33,2.33,0,0,0-.53.06,2.28,2.28,0,0,0-.51.21,2.53,2.53,0,0,0-.43.32.63.63,0,0,0-.12.11,4.38,4.38,0,0,0-.32.45,2.33,2.33,0,0,0-.2.52,2,2,0,0,0,0,1,.24.24,0,0,0,0,.08,2.44,2.44,0,0,0,.19.44,1.14,1.14,0,0,0,.4.44,1.36,1.36,0,0,0,1.17.31,1.2,1.2,0,0,0,.58-.18l.32-.25a1.63,1.63,0,0,0,.41-.69l.05-.42a1.59,1.59,0,0,0-.21-.8Z"/>
        </g>
    </g>
</svg>